<svg width="425" height="70" viewBox="0 0 425 70" fill="none" xmlns="http://www.w3.org/2000/svg">
<rect width="425" height="70" fill="black" fill-opacity="0.4"/>
<path d="M23.8984 36.9395C23.7402 38.293 23.2393 39.3389 22.3955 40.0771C21.5576 40.8096 20.4414 41.1758 19.0469 41.1758C17.5352 41.1758 16.3223 40.6338 15.4082 39.5498C14.5 38.4658 14.0459 37.0156 14.0459 35.1992V33.9688C14.0459 32.7793 14.2568 31.7334 14.6787 30.8311C15.1064 29.9287 15.71 29.2373 16.4893 28.7568C17.2686 28.2705 18.1709 28.0273 19.1963 28.0273C20.5557 28.0273 21.6455 28.4082 22.4658 29.1699C23.2861 29.9258 23.7637 30.9746 23.8984 32.3164H22.2021C22.0557 31.2969 21.7363 30.5586 21.2441 30.1016C20.7578 29.6445 20.0752 29.416 19.1963 29.416C18.1182 29.416 17.2715 29.8145 16.6562 30.6113C16.0469 31.4082 15.7422 32.542 15.7422 34.0127V35.252C15.7422 36.6406 16.0322 37.7451 16.6123 38.5654C17.1924 39.3857 18.0039 39.7959 19.0469 39.7959C19.9844 39.7959 20.7021 39.585 21.2002 39.1631C21.7041 38.7354 22.0381 37.9941 22.2021 36.9395H23.8984ZM30.5518 32.9492C30.3057 32.9082 30.0391 32.8877 29.752 32.8877C28.6855 32.8877 27.9619 33.3418 27.5811 34.25V41H25.9551V31.4902H27.5371L27.5635 32.5889C28.0967 31.7393 28.8525 31.3145 29.8311 31.3145C30.1475 31.3145 30.3877 31.3555 30.5518 31.4375V32.9492ZM35.8252 41.1758C34.5361 41.1758 33.4873 40.7539 32.6787 39.9102C31.8701 39.0605 31.4658 37.9268 31.4658 36.5088V36.21C31.4658 35.2666 31.6445 34.4258 32.002 33.6875C32.3652 32.9434 32.8691 32.3633 33.5137 31.9473C34.1641 31.5254 34.8672 31.3145 35.623 31.3145C36.8594 31.3145 37.8203 31.7217 38.5059 32.5361C39.1914 33.3506 39.5342 34.5166 39.5342 36.0342V36.7109H33.0918C33.1152 37.6484 33.3877 38.4072 33.9092 38.9873C34.4365 39.5615 35.1045 39.8486 35.9131 39.8486C36.4873 39.8486 36.9736 39.7314 37.3721 39.4971C37.7705 39.2627 38.1191 38.9521 38.418 38.5654L39.4111 39.3389C38.6143 40.5635 37.4189 41.1758 35.8252 41.1758ZM35.623 32.6504C34.9668 32.6504 34.416 32.8906 33.9707 33.3711C33.5254 33.8457 33.25 34.5137 33.1445 35.375H37.9082V35.252C37.8613 34.4258 37.6387 33.7871 37.2402 33.3359C36.8418 32.8789 36.3027 32.6504 35.623 32.6504ZM47.2949 41C47.2012 40.8125 47.125 40.4785 47.0664 39.998C46.3105 40.7832 45.4082 41.1758 44.3594 41.1758C43.4219 41.1758 42.6514 40.9121 42.0479 40.3848C41.4502 39.8516 41.1514 39.1777 41.1514 38.3633C41.1514 37.373 41.5264 36.6055 42.2764 36.0605C43.0322 35.5098 44.0928 35.2344 45.458 35.2344H47.04V34.4873C47.04 33.9189 46.8701 33.4678 46.5303 33.1338C46.1904 32.7939 45.6895 32.624 45.0273 32.624C44.4473 32.624 43.9609 32.7705 43.5684 33.0635C43.1758 33.3564 42.9795 33.7109 42.9795 34.127H41.3447C41.3447 33.6523 41.5117 33.1953 41.8457 32.7559C42.1855 32.3105 42.6426 31.959 43.2168 31.7012C43.7969 31.4434 44.4326 31.3145 45.124 31.3145C46.2197 31.3145 47.0781 31.5898 47.6992 32.1406C48.3203 32.6855 48.6426 33.4385 48.666 34.3994V38.7764C48.666 39.6494 48.7773 40.3438 49 40.8594V41H47.2949ZM44.5967 39.7607C45.1064 39.7607 45.5898 39.6289 46.0469 39.3652C46.5039 39.1016 46.835 38.7588 47.04 38.3369V36.3857H45.7656C43.7734 36.3857 42.7773 36.9688 42.7773 38.1348C42.7773 38.6445 42.9473 39.043 43.2871 39.3301C43.627 39.6172 44.0635 39.7607 44.5967 39.7607ZM53.4209 29.1875V31.4902H55.1963V32.7471H53.4209V38.6445C53.4209 39.0254 53.5 39.3125 53.6582 39.5059C53.8164 39.6934 54.0859 39.7871 54.4668 39.7871C54.6543 39.7871 54.9121 39.752 55.2402 39.6816V41C54.8125 41.1172 54.3965 41.1758 53.9922 41.1758C53.2656 41.1758 52.7178 40.9561 52.3486 40.5166C51.9795 40.0771 51.7949 39.4531 51.7949 38.6445V32.7471H50.0635V31.4902H51.7949V29.1875H53.4209ZM58.8701 41H57.2441V31.4902H58.8701V41ZM57.1123 28.9678C57.1123 28.7041 57.1914 28.4814 57.3496 28.2998C57.5137 28.1182 57.7539 28.0273 58.0703 28.0273C58.3867 28.0273 58.627 28.1182 58.791 28.2998C58.9551 28.4814 59.0371 28.7041 59.0371 28.9678C59.0371 29.2314 58.9551 29.4512 58.791 29.627C58.627 29.8027 58.3867 29.8906 58.0703 29.8906C57.7539 29.8906 57.5137 29.8027 57.3496 29.627C57.1914 29.4512 57.1123 29.2314 57.1123 28.9678ZM64.6182 38.7939L66.9736 31.4902H68.6348L65.2246 41H63.9854L60.54 31.4902H62.2012L64.6182 38.7939ZM74.0225 41.1758C72.7334 41.1758 71.6846 40.7539 70.876 39.9102C70.0674 39.0605 69.6631 37.9268 69.6631 36.5088V36.21C69.6631 35.2666 69.8418 34.4258 70.1992 33.6875C70.5625 32.9434 71.0664 32.3633 71.7109 31.9473C72.3613 31.5254 73.0645 31.3145 73.8203 31.3145C75.0566 31.3145 76.0176 31.7217 76.7031 32.5361C77.3887 33.3506 77.7314 34.5166 77.7314 36.0342V36.7109H71.2891C71.3125 37.6484 71.585 38.4072 72.1064 38.9873C72.6338 39.5615 73.3018 39.8486 74.1104 39.8486C74.6846 39.8486 75.1709 39.7314 75.5693 39.4971C75.9678 39.2627 76.3164 38.9521 76.6152 38.5654L77.6084 39.3389C76.8115 40.5635 75.6162 41.1758 74.0225 41.1758ZM73.8203 32.6504C73.1641 32.6504 72.6133 32.8906 72.168 33.3711C71.7227 33.8457 71.4473 34.5137 71.3418 35.375H76.1055V35.252C76.0586 34.4258 75.8359 33.7871 75.4375 33.3359C75.0391 32.8789 74.5 32.6504 73.8203 32.6504ZM92.8311 29.5918H88.7178V41H87.0391V29.5918H82.9346V28.2031H92.8311V29.5918ZM96.2412 41H94.6152V31.4902H96.2412V41ZM94.4834 28.9678C94.4834 28.7041 94.5625 28.4814 94.7207 28.2998C94.8848 28.1182 95.125 28.0273 95.4414 28.0273C95.7578 28.0273 95.998 28.1182 96.1621 28.2998C96.3262 28.4814 96.4082 28.7041 96.4082 28.9678C96.4082 29.2314 96.3262 29.4512 96.1621 29.627C95.998 29.8027 95.7578 29.8906 95.4414 29.8906C95.125 29.8906 94.8848 29.8027 94.7207 29.627C94.5625 29.4512 94.4834 29.2314 94.4834 28.9678ZM100.381 31.4902L100.425 32.5449C101.122 31.7246 102.063 31.3145 103.246 31.3145C104.576 31.3145 105.481 31.8242 105.962 32.8438C106.278 32.3867 106.688 32.0176 107.192 31.7363C107.702 31.4551 108.303 31.3145 108.994 31.3145C111.08 31.3145 112.141 32.4189 112.176 34.6279V41H110.55V34.7246C110.55 34.0449 110.395 33.5381 110.084 33.2041C109.773 32.8643 109.252 32.6943 108.52 32.6943C107.916 32.6943 107.415 32.876 107.017 33.2393C106.618 33.5967 106.387 34.0801 106.322 34.6895V41H104.688V34.7686C104.688 33.3857 104.011 32.6943 102.657 32.6943C101.591 32.6943 100.861 33.1484 100.469 34.0566V41H98.8428V31.4902H100.381Z" fill="white"/>
<rect x="380" y="27" width="22" height="2" fill="white"/>
<rect x="380" y="33" width="22" height="2" fill="white"/>
<rect x="380" y="39" width="22" height="2" fill="white"/>
</svg>
