<svg width="425" height="62" viewBox="0 0 425 62" fill="none" xmlns="http://www.w3.org/2000/svg">
<rect width="425" height="62" fill="black" fill-opacity="0.4"/>
<path d="M25.6875 28.0098C25.541 29.3574 25.0576 30.3887 24.2373 31.1035C23.4229 31.8184 22.3359 32.1758 20.9766 32.1758C20.0273 32.1758 19.1865 31.9385 18.4541 31.4639C17.7275 30.9893 17.165 30.3184 16.7666 29.4512C16.3682 28.5781 16.166 27.582 16.1602 26.4629V24.8018C16.1602 23.665 16.3594 22.6572 16.7578 21.7783C17.1562 20.8994 17.7275 20.2227 18.4717 19.748C19.2217 19.2676 20.083 19.0273 21.0557 19.0273C22.4268 19.0273 23.5078 19.3994 24.2988 20.1436C25.0957 20.8818 25.5586 21.9043 25.6875 23.2109H24.5977C24.3281 21.0371 23.1475 19.9502 21.0557 19.9502C19.8955 19.9502 18.9697 20.3838 18.2783 21.251C17.5928 22.1182 17.25 23.3164 17.25 24.8457V26.4102C17.25 27.8867 17.584 29.0645 18.252 29.9434C18.9258 30.8223 19.834 31.2617 20.9766 31.2617C22.1074 31.2617 22.96 30.9922 23.5342 30.4531C24.1084 29.9082 24.4629 29.0938 24.5977 28.0098H25.6875ZM32.4639 23.3867C32.2412 23.3457 32.0039 23.3252 31.752 23.3252C31.0957 23.3252 30.5391 23.5098 30.082 23.8789C29.6309 24.2422 29.3086 24.7725 29.1152 25.4697V32H28.0693V22.4902H29.0977L29.1152 24.002C29.6719 22.877 30.5654 22.3145 31.7959 22.3145C32.0889 22.3145 32.3203 22.3525 32.4902 22.4287L32.4639 23.3867ZM37.6406 32.1758C36.832 32.1758 36.0996 31.9766 35.4434 31.5781C34.793 31.1797 34.2861 30.626 33.9229 29.917C33.5596 29.2021 33.3779 28.4023 33.3779 27.5176V27.1396C33.3779 26.2256 33.5537 25.4023 33.9053 24.6699C34.2627 23.9375 34.7578 23.3633 35.3906 22.9473C36.0234 22.5254 36.709 22.3145 37.4473 22.3145C38.6016 22.3145 39.5156 22.71 40.1895 23.501C40.8691 24.2861 41.209 25.3613 41.209 26.7266V27.3154H34.4238V27.5176C34.4238 28.5957 34.7314 29.4951 35.3467 30.2158C35.9678 30.9307 36.7471 31.2881 37.6846 31.2881C38.2471 31.2881 38.7422 31.1855 39.1699 30.9805C39.6035 30.7754 39.9961 30.4473 40.3477 29.9961L41.0068 30.4971C40.2334 31.6162 39.1113 32.1758 37.6406 32.1758ZM37.4473 23.2109C36.6562 23.2109 35.9883 23.501 35.4434 24.0811C34.9043 24.6611 34.5762 25.4404 34.459 26.4189H40.1631V26.3047C40.1338 25.3906 39.873 24.6465 39.3809 24.0723C38.8887 23.498 38.2441 23.2109 37.4473 23.2109ZM49.2598 32C49.1543 31.7012 49.0869 31.2588 49.0576 30.6729C48.6885 31.1533 48.2168 31.5254 47.6426 31.7891C47.0742 32.0469 46.4707 32.1758 45.832 32.1758C44.918 32.1758 44.1768 31.9209 43.6084 31.4111C43.0459 30.9014 42.7646 30.2568 42.7646 29.4775C42.7646 28.5518 43.1484 27.8193 43.916 27.2803C44.6895 26.7412 45.7646 26.4717 47.1416 26.4717H49.0488V25.3906C49.0488 24.7109 48.8379 24.1777 48.416 23.791C48 23.3984 47.3906 23.2021 46.5879 23.2021C45.8555 23.2021 45.249 23.3896 44.7686 23.7646C44.2881 24.1396 44.0479 24.5908 44.0479 25.1182L42.9932 25.1094C42.9932 24.3535 43.3447 23.7002 44.0479 23.1494C44.751 22.5928 45.6152 22.3145 46.6406 22.3145C47.7012 22.3145 48.5361 22.5811 49.1455 23.1143C49.7607 23.6416 50.0771 24.3799 50.0947 25.3291V29.8291C50.0947 30.749 50.1914 31.4375 50.3848 31.8945V32H49.2598ZM45.9551 31.2441C46.6582 31.2441 47.2852 31.0742 47.8359 30.7344C48.3926 30.3945 48.7969 29.9404 49.0488 29.3721V27.2803H47.168C46.1191 27.292 45.2988 27.4854 44.707 27.8604C44.1152 28.2295 43.8193 28.7393 43.8193 29.3896C43.8193 29.9229 44.0156 30.3652 44.4082 30.7168C44.8066 31.0684 45.3223 31.2441 45.9551 31.2441ZM54.542 20.0557V22.4902H56.5107V23.3516H54.542V29.6885C54.542 30.2158 54.6357 30.6084 54.8232 30.8662C55.0166 31.124 55.3359 31.2529 55.7812 31.2529C55.957 31.2529 56.2412 31.2236 56.6338 31.165L56.6777 32.0264C56.4023 32.126 56.0273 32.1758 55.5527 32.1758C54.832 32.1758 54.3076 31.9678 53.9795 31.5518C53.6514 31.1299 53.4873 30.5117 53.4873 29.6973V23.3516H51.7383V22.4902H53.4873V20.0557H54.542ZM59.8682 32H58.8135V22.4902H59.8682V32ZM58.6289 19.7393C58.6289 19.54 58.6934 19.373 58.8223 19.2383C58.9512 19.0977 59.127 19.0273 59.3496 19.0273C59.5723 19.0273 59.748 19.0977 59.877 19.2383C60.0117 19.373 60.0791 19.54 60.0791 19.7393C60.0791 19.9385 60.0117 20.1055 59.877 20.2402C59.748 20.375 59.5723 20.4424 59.3496 20.4424C59.127 20.4424 58.9512 20.375 58.8223 20.2402C58.6934 20.1055 58.6289 19.9385 58.6289 19.7393ZM65.6953 30.5498L68.5869 22.4902H69.668L66.1172 32H65.2646L61.6963 22.4902H62.7773L65.6953 30.5498ZM74.959 32.1758C74.1504 32.1758 73.418 31.9766 72.7617 31.5781C72.1113 31.1797 71.6045 30.626 71.2412 29.917C70.8779 29.2021 70.6963 28.4023 70.6963 27.5176V27.1396C70.6963 26.2256 70.8721 25.4023 71.2236 24.6699C71.5811 23.9375 72.0762 23.3633 72.709 22.9473C73.3418 22.5254 74.0273 22.3145 74.7656 22.3145C75.9199 22.3145 76.834 22.71 77.5078 23.501C78.1875 24.2861 78.5273 25.3613 78.5273 26.7266V27.3154H71.7422V27.5176C71.7422 28.5957 72.0498 29.4951 72.665 30.2158C73.2861 30.9307 74.0654 31.2881 75.0029 31.2881C75.5654 31.2881 76.0605 31.1855 76.4883 30.9805C76.9219 30.7754 77.3145 30.4473 77.666 29.9961L78.3252 30.4971C77.5518 31.6162 76.4297 32.1758 74.959 32.1758ZM74.7656 23.2109C73.9746 23.2109 73.3066 23.501 72.7617 24.0811C72.2227 24.6611 71.8945 25.4404 71.7773 26.4189H77.4814V26.3047C77.4521 25.3906 77.1914 24.6465 76.6992 24.0723C76.207 23.498 75.5625 23.2109 74.7656 23.2109ZM93.5303 20.126H89.1445V32H88.0635V20.126H83.6865V19.2031H93.5303V20.126ZM96.5361 32H95.4814V22.4902H96.5361V32ZM95.2969 19.7393C95.2969 19.54 95.3613 19.373 95.4902 19.2383C95.6191 19.0977 95.7949 19.0273 96.0176 19.0273C96.2402 19.0273 96.416 19.0977 96.5449 19.2383C96.6797 19.373 96.7471 19.54 96.7471 19.7393C96.7471 19.9385 96.6797 20.1055 96.5449 20.2402C96.416 20.375 96.2402 20.4424 96.0176 20.4424C95.7949 20.4424 95.6191 20.375 95.4902 20.2402C95.3613 20.1055 95.2969 19.9385 95.2969 19.7393ZM100.359 22.4902L100.395 24.0371C100.746 23.4629 101.186 23.0322 101.713 22.7451C102.24 22.458 102.826 22.3145 103.471 22.3145C104.971 22.3145 105.923 22.9297 106.327 24.1602C106.667 23.5684 107.121 23.1143 107.689 22.7979C108.258 22.4756 108.885 22.3145 109.57 22.3145C111.609 22.3145 112.649 23.4277 112.69 25.6543V32H111.636V25.7334C111.63 24.8838 111.445 24.2539 111.082 23.8438C110.725 23.4336 110.139 23.2285 109.324 23.2285C108.568 23.2402 107.93 23.4863 107.408 23.9668C106.887 24.4414 106.597 25.0215 106.538 25.707V32H105.483V25.6543C105.478 24.8398 105.284 24.2334 104.903 23.835C104.528 23.4307 103.948 23.2285 103.163 23.2285C102.501 23.2285 101.933 23.4189 101.458 23.7998C100.983 24.1748 100.632 24.7344 100.403 25.4785V32H99.3486V22.4902H100.359Z" fill="white"/>
<rect x="378" y="18" width="22" height="2" fill="white"/>
<rect x="378" y="24" width="22" height="2" fill="white"/>
<rect x="378" y="30" width="22" height="2" fill="white"/>
</svg>
